<?xml version="1.0" standalone="no"?>
<!DOCTYPE svg PUBLIC "-//W3C//DTD SVG 20010904//EN"
 "http://www.w3.org/TR/2001/REC-SVG-20010904/DTD/svg10.dtd">
<svg version="1.0" xmlns="http://www.w3.org/2000/svg"
 width="300.000000pt" height="300.000000pt" viewBox="0 0 300.000000 300.000000"
 preserveAspectRatio="xMidYMid meet">
<metadata>
Created by potrace 1.14, written by Peter Selinger 2001-2017
</metadata>
<g transform="translate(0.000000,300.000000) scale(0.100000,-0.100000)"
fill="#000000" stroke="none">
<path d="M1315 2994 c-350 -51 -633 -191 -875 -434 -215 -214 -345 -451 -412
-751 -20 -90 -23 -131 -23 -309 0 -178 3 -219 23 -309 89 -398 314 -726 651
-948 358 -236 819 -305 1239 -184 475 137 861 511 1010 981 55 172 67 256 67
465 0 204 -14 298 -71 473 -140 431 -505 799 -935 943 -174 58 -248 70 -454
74 -104 2 -203 1 -220 -1z m-355 -664 c148 -24 279 -67 405 -133 l100 -52 3
-597 2 -597 -82 44 c-148 79 -429 155 -571 155 -23 0 -59 3 -79 6 l-38 7 0
598 0 598 73 -5 c39 -3 124 -14 187 -24z m1340 -569 l0 -600 -52 -5 c-29 -3
-84 -8 -123 -11 -179 -16 -434 -94 -554 -169 l-41 -26 2 596 3 597 81 47 c85
48 257 109 384 136 63 13 130 20 283 33 16 1 17 -34 17 -598z m-1660 -150 c0
-455 2 -510 16 -515 9 -3 48 -6 87 -6 223 -1 498 -77 681 -188 37 -23 72 -42
78 -42 5 0 28 13 51 29 160 109 420 187 662 198 66 3 126 10 133 16 9 7 12
122 12 513 l0 504 70 0 70 0 0 -640 0 -640 -436 0 -437 0 -23 -25 c-21 -23
-30 -25 -104 -25 -74 0 -83 2 -104 25 l-23 25 -437 0 -436 0 0 640 0 640 70 0
70 0 0 -509z"/>
</g>
</svg>
